<svg width="40" height="41" viewBox="0 0 40 41" fill="none" xmlns="http://www.w3.org/2000/svg">
<path d="M13 19.5C12.7239 19.5 12.5 19.7239 12.5 20C12.5 20.2761 12.7239 20.5 13 20.5L13 19.5ZM36.3536 20.3536C36.5488 20.1583 36.5488 19.8417 36.3536 19.6464L33.1716 16.4645C32.9763 16.2692 32.6597 16.2692 32.4645 16.4645C32.2692 16.6597 32.2692 16.9763 32.4645 17.1716L35.2929 20L32.4645 22.8284C32.2692 23.0237 32.2692 23.3403 32.4645 23.5355C32.6597 23.7308 32.9763 23.7308 33.1716 23.5355L36.3536 20.3536ZM13 20.5L36 20.5L36 19.5L13 19.5L13 20.5Z" fill="#000"/>
</svg>