<svg width="40" height="41" viewBox="0 0 40 41" fill="none" xmlns="http://www.w3.org/2000/svg">
<path d="M13 19.5C12.7239 19.5 12.5 19.7239 12.5 20C12.5 20.2761 12.7239 20.5 13 20.5L13 19.5ZM25.3536 20.3536C25.5488 20.1583 25.5488 19.8417 25.3536 19.6464L22.1716 16.4645C21.9763 16.2692 21.6597 16.2692 21.4645 16.4645C21.2692 16.6597 21.2692 16.9763 21.4645 17.1716L24.2929 20L21.4645 22.8284C21.2692 23.0237 21.2692 23.3403 21.4645 23.5355C21.6597 23.7308 21.9763 23.7308 22.1716 23.5355L25.3536 20.3536ZM13 20.5L25 20.5L25 19.5L13 19.5L13 20.5Z" fill="#000"/>
</svg>